<svg xmlns="http://www.w3.org/2000/svg" viewBox="0 0 38 18"><path fill="#222" d="M61 14H3a2 2 0 0 0-2 2v32a2 2 0 0 0 2 2h58a2 2 0 0 0 2-2V16a2 2 0 0 0-2-2ZM21.5 39a2 2 0 0 1-1.5 1.93 1.93 1.93 0 0 1-.53.07 2 2 0 0 1-1.72-1l-4.61-7.75V39a2 2 0 0 1-4 0V25a2 2 0 0 1 3.71-1l4.62 7.75V25a2 2 0 0 1 4 0Zm9.5-9a2 2 0 0 1 0 4h-2.5v3h6a2 2 0 0 1 0 4h-8a2 2 0 0 1-2-2V25a2 2 0 0 1 2-2h8a2 2 0 0 1 0 4h-6v3Zm23.5 9a2 2 0 0 1-.78 1.58 2.11 2.11 0 0 1-.27.18l-.22.1h-.39a1.66 1.66 0 0 1-.32 0 2 2 0 0 1-1.58-.78l-.09-.11-3.74-4.85-3.83 5a2 2 0 0 1-1.58.78h-.2a2 2 0 0 1-2-2V25a2 2 0 0 1 4 0v8.38l1.9-2.45.11-.15a2 2 0 0 1 .36-.36 1.67 1.67 0 0 1 .28-.18 1.51 1.51 0 0 1 .26-.12h.1a1.22 1.22 0 0 1 .26-.06 1.72 1.72 0 0 1 .64 0 1.22 1.22 0 0 1 .26.06h.1a1.51 1.51 0 0 1 .26.12 1.67 1.67 0 0 1 .28.18 2.05 2.05 0 0 1 .47.51l1.72 2.22V25a2 2 0 0 1 4 0Z"/></svg>